HIERARCHY
ROOT joint_Root
{
	OFFSET 0.0 0.0 0.0
	CHANNELS 6 Xposition Yposition Zposition Zrotation Xrotation Yrotation 
	JOINT Hips
	{
		OFFSET -0.726466 93.3139 -2.00062
		CHANNELS 6 Xposition Yposition Zposition Zrotation Xrotation Yrotation 
		JOINT Spine
		{
			OFFSET 15.7357 0.0 0.0
			CHANNELS 6 Xposition Yposition Zposition Zrotation Xrotation Yrotation 
			JOINT Chest
			{
				OFFSET 8.98455 -0.406207 0.0
				CHANNELS 6 Xposition Yposition Zposition Zrotation Xrotation Yrotation 
				JOINT Neck
				{
					OFFSET 16.3773 0.0 0.0
					CHANNELS 6 Xposition Yposition Zposition Zrotation Xrotation Yrotation 
					JOINT Head
					{
						OFFSET 6.45672 0.0 0.0
						CHANNELS 6 Xposition Yposition Zposition Zrotation Xrotation Yrotation 
						End Site
						{
							OFFSET 0.0 0.0 0.0
						}
					}
				}
				JOINT Shoulder_L
				{
					OFFSET 12.9942 -0.242716 4.98039
					CHANNELS 6 Xposition Yposition Zposition Zrotation Xrotation Yrotation 
					JOINT UpperArm_L
					{
						OFFSET 5.34809 0.0 0.0
						CHANNELS 6 Xposition Yposition Zposition Zrotation Xrotation Yrotation 
						JOINT LowerArm_L
						{
							OFFSET 24.3286 1.87007e-05 0.0
							CHANNELS 6 Xposition Yposition Zposition Zrotation Xrotation Yrotation 
							JOINT Hand_L
							{
								OFFSET 22.2916 0.0 0.0
								CHANNELS 6 Xposition Yposition Zposition Zrotation Xrotation Yrotation 
								End Site
								{
									OFFSET 0.0 0.0 0.0
								}
							}
						}
					}
				}
				JOINT Shoulder_R
				{
					OFFSET 12.9945 -0.242716 -4.98039
					CHANNELS 6 Xposition Yposition Zposition Zrotation Xrotation Yrotation 
					JOINT UpperArm_R
					{
						OFFSET -5.34813 0.0 0.0
						CHANNELS 6 Xposition Yposition Zposition Zrotation Xrotation Yrotation 
						JOINT LowerArm_R
						{
							OFFSET -24.3289 0.000322201 0.0
							CHANNELS 6 Xposition Yposition Zposition Zrotation Xrotation Yrotation 
							JOINT Hand_R
							{
								OFFSET -22.2915 -0.000108084 0.0
								CHANNELS 6 Xposition Yposition Zposition Zrotation Xrotation Yrotation 
								End Site
								{
									OFFSET 0.0 0.0 0.0
								}
							}
						}
					}
				}
			}
		}
		JOINT UpperLeg_L
		{
			OFFSET -2.19248 -6.46944 0.0
			CHANNELS 6 Xposition Yposition Zposition Zrotation Xrotation Yrotation 
			JOINT LowerLeg_L
			{
				OFFSET 39.0811 0.0 -1.23785e-05
				CHANNELS 6 Xposition Yposition Zposition Zrotation Xrotation Yrotation 
				JOINT Foot_L
				{
					OFFSET 40.9854 0.0 -1.26872e-05
					CHANNELS 6 Xposition Yposition Zposition Zrotation Xrotation Yrotation 
					JOINT Toes_L
					{
						OFFSET 11.7543 0.0 0.0
						CHANNELS 6 Xposition Yposition Zposition Zrotation Xrotation Yrotation 
						End Site
						{
							OFFSET 0.0 0.0 0.0
						}
					}
				}
			}
		}
		JOINT UpperLeg_R
		{
			OFFSET -2.19251 6.46944 0.0
			CHANNELS 6 Xposition Yposition Zposition Zrotation Xrotation Yrotation 
			JOINT LowerLeg_R
			{
				OFFSET -39.0811 -0.00228153 -0.0401928
				CHANNELS 6 Xposition Yposition Zposition Zrotation Xrotation Yrotation 
				JOINT Foot_R
				{
					OFFSET -40.9854 0.0 0.0
					CHANNELS 6 Xposition Yposition Zposition Zrotation Xrotation Yrotation 
					JOINT Toes_R
					{
						OFFSET -11.7543 0.0 0.0
						CHANNELS 6 Xposition Yposition Zposition Zrotation Xrotation Yrotation 
						End Site
						{
							OFFSET 0.0 0.0 0.0
						}
					}
				}
			}
		}
	}
}
MOTION
Frames:	7
Frame Time:	0.0333333
0.000000 0.000000 0.000000 0.000000 0.000000 -0.000000 -1.310140 92.154600 -1.520320 87.729600 0.438137 2.715580 15.735700 0.000005 -0.000001 80.934300 85.356200 -80.172900 8.984550 -0.406207 -0.000000 1.416580 -1.504870 1.540110 16.377300 -0.000001 -0.000001 0.077009 -2.335790 0.236271 6.456720 -0.000001 -0.000000 -2.312450 -1.248370 -1.947850 12.994200 -0.242716 4.980390 -90.017100 0.050888 -71.462900 5.348090 -0.000007 -0.000001 -59.277400 43.733100 -14.373000 24.328600 0.000019 0.000005 3.202030 5.163980 -31.864100 22.291600 -0.000001 0.000005 4.597200 5.569230 -9.652290 12.994500 -0.242716 -4.980390 88.038300 5.338620 -69.789800 -5.348130 -0.000001 -0.000004 -65.879900 31.459500 -13.208400 -24.328900 0.000322 -0.000009 2.079810 6.337490 -18.219300 -22.291500 -0.000108 -0.000004 7.758370 5.496140 -6.378820 -2.192480 -6.469440 -0.000000 -169.028000 -16.909100 -4.284750 39.081100 -0.000007 -0.000012 -0.164640 0.420056 21.402800 40.985400 -0.000006 -0.000013 -7.099840 -1.718360 -62.312000 11.754300 -0.000000 0.000003 -0.000092 -0.000961 -16.614500 -2.192510 6.469440 -0.000001 175.031000 22.770000 178.465000 -39.081100 -0.002282 -0.040193 -0.035572 0.110840 19.336500 -40.985400 0.000008 0.000006 -3.470080 -0.225840 -62.875000 -11.754300 -0.000006 -0.000006 -0.003587 -0.047074 -18.487800
0.000000 0.000000 0.000000 0.000000 0.000000 -0.000000 -1.269100 92.160800 -1.551900 87.759800 0.398710 2.647990 15.735700 0.000005 -0.000001 81.206400 85.322100 -80.485700 8.984550 -0.406207 -0.000000 1.489900 -1.468990 1.459110 16.377300 -0.000001 -0.000001 -0.074809 -2.195180 0.170310 6.456720 -0.000001 -0.000000 -2.750430 -1.005400 -2.141420 12.994200 -0.242716 4.980390 -89.992600 -0.022069 -71.446900 5.348090 -0.000007 -0.000001 -56.191700 46.361100 -15.209100 24.328600 0.000019 0.000005 3.402190 4.864090 -35.037100 22.291600 -0.000001 0.000005 4.549600 5.585740 -10.523300 12.994500 -0.242716 -4.980390 88.072100 5.185040 -69.570900 -5.348130 -0.000001 -0.000004 -65.308300 29.864600 -13.368000 -24.328900 0.000322 -0.000009 2.022450 6.230810 -18.031800 -22.291500 -0.000108 -0.000004 7.847230 5.495340 -6.346860 -2.192480 -6.469440 -0.000000 -169.113000 -17.007400 -4.365070 39.081100 -0.000007 -0.000012 -0.164904 0.420979 21.391300 40.985400 -0.000006 -0.000013 -7.059220 -1.728830 -62.287900 11.754300 -0.000000 0.000003 -0.000100 -0.001033 -16.617200 -2.192510 6.469440 -0.000001 175.005000 22.691400 178.382000 -39.081100 -0.002282 -0.040193 -0.035575 0.111094 19.296700 -40.985400 0.000008 0.000006 -3.516440 -0.227517 -62.821600 -11.754300 -0.000006 -0.000006 -0.003465 -0.045757 -18.434100
0.000000 0.000000 0.000000 0.000000 0.000000 -0.000000 -1.200910 92.180800 -1.587490 87.783500 0.329948 2.530350 15.735700 0.000005 -0.000001 81.294900 85.296300 -80.610000 8.984550 -0.406207 -0.000000 1.542580 -1.460220 1.388230 16.377300 -0.000001 -0.000001 -0.303535 -2.004490 0.129290 6.456720 -0.000001 -0.000000 -3.170550 -0.720737 -2.387540 12.994200 -0.242716 4.980390 -89.945900 -0.160367 -71.344500 5.348090 -0.000007 -0.000001 -52.629100 49.178700 -16.119000 24.328600 0.000019 0.000005 3.473670 4.290920 -39.055400 22.291600 -0.000001 0.000005 4.808640 5.605220 -11.659500 12.994500 -0.242716 -4.980390 88.154100 4.918130 -69.397800 -5.348130 -0.000001 -0.000004 -64.550900 27.787200 -13.574100 -24.328900 0.000322 -0.000009 1.956190 6.066620 -17.918800 -22.291500 -0.000108 -0.000004 8.124610 5.495670 -6.360140 -2.192480 -6.469440 -0.000000 -169.219000 -17.037700 -4.427590 39.081100 -0.000007 -0.000012 -0.162194 0.416491 21.277600 40.985400 -0.000006 -0.000013 -7.014870 -1.749280 -62.243600 11.754300 -0.000000 0.000003 -0.000097 -0.001007 -16.616200 -2.192510 6.469440 -0.000001 175.015000 22.696400 178.261000 -39.081100 -0.002282 -0.040193 -0.031176 0.099088 19.196400 -40.985400 0.000008 0.000006 -3.407790 -0.174402 -62.723000 -11.754300 -0.000006 -0.000006 -0.003534 -0.046503 -18.464500
0.000000 0.000000 0.000000 0.000000 0.000000 -0.000000 -1.125920 92.202800 -1.635130 87.780600 0.292323 2.380370 15.735700 0.000005 -0.000001 81.205000 85.277100 -80.550300 8.984550 -0.406207 -0.000000 1.578080 -1.478830 1.328590 16.377300 -0.000001 -0.000001 -0.571667 -1.825850 0.060372 6.456720 -0.000001 -0.000000 -3.572160 -0.413087 -2.638560 12.994200 -0.242716 4.980390 -89.858100 -0.419080 -71.295600 5.348090 -0.000007 -0.000001 -48.973400 51.823700 -16.820300 24.328600 0.000019 0.000005 3.311740 3.457580 -43.821300 22.291600 -0.000001 0.000005 5.344910 5.624410 -12.919800 12.994500 -0.242716 -4.980390 88.244400 4.636690 -69.234800 -5.348130 -0.000001 -0.000004 -63.393700 25.202600 -13.902100 -24.328900 0.000322 -0.000009 1.789970 5.608070 -17.743500 -22.291500 -0.000108 -0.000004 8.387680 5.499700 -6.521080 -2.192480 -6.469440 -0.000000 -169.339000 -17.080500 -4.591760 39.081100 -0.000007 -0.000012 -0.160104 0.412352 21.219900 40.985400 -0.000006 -0.000013 -6.951910 -1.822160 -62.196600 11.754300 -0.000000 0.000003 -0.000100 -0.001030 -16.617100 -2.192510 6.469440 -0.000001 175.064000 22.792300 178.087000 -39.081100 -0.002282 -0.040193 -0.024216 0.079515 19.102800 -40.985400 0.000008 0.000006 -3.177910 -0.104938 -62.608400 -11.754300 -0.000006 -0.000006 -0.003668 -0.047941 -18.523100
0.000000 0.000000 0.000000 0.000000 0.000000 -0.000000 -1.027650 92.220600 -1.689580 87.813200 0.236222 2.215030 15.735700 0.000005 -0.000001 81.046300 85.267100 -80.432500 8.984550 -0.406207 -0.000000 1.593400 -1.505480 1.247530 16.377300 -0.000001 -0.000001 -0.800163 -1.621330 0.022385 6.456720 -0.000001 -0.000000 -4.057060 -0.145189 -2.930750 12.994200 -0.242716 4.980390 -89.713200 -0.842236 -71.194100 5.348090 -0.000007 -0.000001 -45.269000 54.428100 -17.567300 24.328600 0.000019 0.000005 2.757910 2.422740 -48.739100 22.291600 -0.000001 0.000005 6.416770 5.643140 -14.380900 12.994500 -0.242716 -4.980390 88.365100 4.266180 -69.008800 -5.348130 -0.000001 -0.000004 -61.756200 22.411500 -14.464200 -24.328900 0.000322 -0.000009 1.601070 5.072460 -17.554300 -22.291500 -0.000108 -0.000004 8.819300 5.500680 -6.560850 -2.192480 -6.469440 -0.000000 -169.506000 -17.146600 -4.769960 39.081100 -0.000007 -0.000012 -0.156707 0.404586 21.172900 40.985400 -0.000006 -0.000013 -6.875620 -1.870020 -62.160900 11.754300 -0.000000 0.000003 -0.000093 -0.000968 -16.614700 -2.192510 6.469440 -0.000001 175.046000 22.849400 177.918000 -39.081100 -0.002282 -0.040193 -0.021514 0.072192 18.985200 -40.985400 0.000008 0.000006 -3.153540 0.028120 -62.478300 -11.754300 -0.000006 -0.000006 -0.003728 -0.048582 -18.549100
0.000000 0.000000 0.000000 0.000000 0.000000 -0.000000 -0.908355 92.243600 -1.705230 87.836500 0.088981 2.076150 15.735700 0.000005 -0.000001 81.147600 85.263700 -80.583500 8.984550 -0.406207 -0.000000 1.601930 -1.487290 1.148010 16.377300 -0.000001 -0.000001 -1.067460 -1.462450 -0.027579 6.456720 -0.000001 -0.000000 -4.445680 0.085668 -3.107470 12.994200 -0.242716 4.980390 -89.548400 -1.318660 -71.092400 5.348090 -0.000007 -0.000001 -41.560700 56.929700 -18.189000 24.328600 0.000019 0.000005 2.871310 2.099210 -53.849600 22.291600 -0.000001 0.000005 7.930190 5.659810 -16.003100 12.994500 -0.242716 -4.980390 88.486800 3.887720 -68.713900 -5.348130 -0.000001 -0.000004 -59.819600 18.864100 -15.115500 -24.328900 0.000322 -0.000009 1.506820 4.839450 -17.328700 -22.291500 -0.000108 -0.000004 9.065070 5.502190 -6.621700 -2.192480 -6.469440 -0.000000 -169.657000 -17.262500 -4.840230 39.081100 -0.000007 -0.000012 -0.154642 0.401088 21.084600 40.985400 -0.000006 -0.000013 -6.799050 -1.938630 -62.154900 11.754300 -0.000000 0.000003 -0.000098 -0.001007 -16.616200 -2.192510 6.469440 -0.000001 175.022000 22.926700 177.793000 -39.081100 -0.002282 -0.040193 -0.014757 0.052927 18.860500 -40.985400 0.000008 0.000006 -2.920550 0.193966 -62.357300 -11.754300 -0.000006 -0.000006 -0.003738 -0.048684 -18.553300
0.000000 0.000000 0.000000 0.000000 0.000000 -0.000000 -0.777095 92.258900 -1.719800 87.868700 0.028673 1.977860 15.735700 0.000005 -0.000001 80.783400 85.246300 -80.283100 8.984550 -0.406207 -0.000000 1.626140 -1.548730 1.021640 16.377300 -0.000001 -0.000001 -1.296410 -1.327800 -0.052892 6.456720 -0.000001 -0.000000 -4.811470 0.292612 -3.264930 12.994200 -0.242716 4.980390 -89.360800 -1.859210 -71.024000 5.348090 -0.000007 -0.000001 -37.854200 59.346800 -18.741600 24.328600 0.000019 0.000005 4.458920 2.642640 -59.392800 22.291600 -0.000001 0.000005 9.322680 5.671590 -17.586500 12.994500 -0.242716 -4.980390 88.623500 3.481960 -68.414200 -5.348130 -0.000001 -0.000004 -57.624400 14.785200 -15.898300 -24.328900 0.000322 -0.000009 1.203220 3.962330 -16.920100 -22.291500 -0.000108 -0.000004 9.436920 5.504560 -6.718520 -2.192480 -6.469440 -0.000000 -169.811000 -17.294500 -4.916700 39.081100 -0.000007 -0.000012 -0.153011 0.397607 21.048300 40.985400 -0.000006 -0.000013 -6.713410 -1.961920 -62.168600 11.754300 -0.000000 0.000003 -0.000102 -0.001050 -16.617800 -2.192510 6.469440 -0.000001 174.949000 23.056000 177.709000 -39.081100 -0.002282 -0.040193 -0.010969 0.042082 18.759900 -40.985400 0.000008 0.000006 -2.809400 0.350124 -62.242900 -11.754300 -0.000006 -0.000006 -0.003673 -0.048000 -18.525500
